<?xml version="1.0" encoding="UTF-8" standalone="no"?>
<svg
   xmlns:dc="http://purl.org/dc/elements/1.1/"
   xmlns:cc="http://creativecommons.org/ns#"
   xmlns:rdf="http://www.w3.org/1999/02/22-rdf-syntax-ns#"
   xmlns:svg="http://www.w3.org/2000/svg"
   xmlns="http://www.w3.org/2000/svg"
   xmlns:sodipodi="http://sodipodi.sourceforge.net/DTD/sodipodi-0.dtd"
   xmlns:inkscape="http://www.inkscape.org/namespaces/inkscape"
   version="1.1"
   x="0px"
   y="0px"
   viewBox="0 0 90 82"
   enable-background="new 0 0 100 100"
   xml:space="preserve"
   id="svg38"
   sodipodi:docname="noun_883802_cc.svg"
   width="90"
   height="82"
   inkscape:version="0.92.1 r15371"><metadata
     id="metadata44"><rdf:RDF><cc:Work
         rdf:about=""><dc:format>image/svg+xml</dc:format><dc:type
           rdf:resource="http://purl.org/dc/dcmitype/StillImage" /><dc:title></dc:title></cc:Work></rdf:RDF></metadata><defs
     id="defs42" /><sodipodi:namedview
     pagecolor="#ffffff"
     bordercolor="#666666"
     borderopacity="1"
     objecttolerance="10"
     gridtolerance="10"
     guidetolerance="10"
     inkscape:pageopacity="0"
     inkscape:pageshadow="2"
     inkscape:window-width="1600"
     inkscape:window-height="838"
     id="namedview40"
     showgrid="false"
     fit-margin-top="0"
     fit-margin-left="0"
     fit-margin-right="0"
     fit-margin-bottom="0"
     inkscape:zoom="0.944"
     inkscape:cx="156.43311"
     inkscape:cy="68.970958"
     inkscape:window-x="-8"
     inkscape:window-y="-8"
     inkscape:window-maximized="1"
     inkscape:current-layer="svg38" /><g
     id="g4"
     style="fill:#415f9d;fill-opacity:1"
     transform="translate(-5,-9)"><path
       d="M 92.984,77.558 H 7.016 C 5.902,77.558 5,76.654 5,75.541 V 11.017 C 5,9.903 5.902,9 7.016,9 H 92.985 C 94.098,9 95,9.903 95,11.017 v 64.524 c 0,1.113 -0.902,2.017 -2.016,2.017 z M 9.029,73.524 H 90.97 V 13.033 H 9.029 Z"
       id="path2"
       style="fill:#415f9d;fill-opacity:1"
       inkscape:connector-curvature="0" /></g><g
     id="g8"
     style="fill:#415f9d;fill-opacity:1"
     transform="translate(-5,-9)"><path
       d="M 83.582,68.147 H 16.418 c -1.112,0 -2.016,-0.903 -2.016,-2.017 V 20.426 c 0,-1.113 0.903,-2.017 2.016,-2.017 h 67.164 c 1.112,0 2.016,0.903 2.016,2.017 v 45.705 c 0,1.113 -0.904,2.016 -2.016,2.016 z M 18.433,64.115 H 81.568 V 22.442 H 18.433 Z"
       id="path6"
       style="fill:#415f9d;fill-opacity:1"
       inkscape:connector-curvature="0" /></g><g
     id="g12"
     style="fill:#415f9d;fill-opacity:1"
     transform="translate(-5,-9)"><path
       d="M 59.402,91 H 40.598 c -1.113,0 -2.016,-0.903 -2.016,-2.017 V 75.541 c 0,-1.113 0.902,-2.017 2.016,-2.017 h 18.805 c 1.113,0 2.016,0.903 2.016,2.017 V 88.983 C 61.418,90.097 60.516,91 59.402,91 Z M 42.611,86.967 H 57.388 V 77.558 H 42.611 Z"
       id="path10"
       style="fill:#415f9d;fill-opacity:1"
       inkscape:connector-curvature="0" /></g><g
     id="g16"
     style="fill:#415f9d;fill-opacity:1"
     transform="translate(-5,-9)"><rect
       x="16.417999"
       y="86.967003"
       width="67.164001"
       height="4.033"
       id="rect14"
       style="fill:#415f9d;fill-opacity:1" /></g><g
     id="g20"
     style="fill:#415f9d;fill-opacity:1"
     transform="translate(-5,-9)"><path
       d="m 50.929,47.571 c -0.081,0 -0.16,-0.005 -0.241,-0.016 -0.021,-0.002 -2.146,-0.257 -3.561,-0.257 l -0.406,0.011 c -0.566,0.05 -1.129,-0.187 -1.529,-0.588 -0.404,-0.404 -0.617,-0.961 -0.588,-1.531 0.058,-1.1 -0.155,-3.237 -0.242,-3.967 -0.07,-0.612 0.143,-1.227 0.578,-1.662 0.438,-0.438 1.057,-0.638 1.66,-0.578 0.021,0.002 2.154,0.252 3.568,0.252 l 0.401,-0.008 c 0.575,-0.047 1.123,0.184 1.526,0.585 0.402,0.404 0.617,0.958 0.588,1.525 -0.053,1.105 0.16,3.248 0.247,3.98 0.071,0.614 -0.142,1.226 -0.58,1.665 -0.379,0.379 -0.891,0.589 -1.421,0.589 z"
       id="path18"
       style="fill:#415f9d;fill-opacity:1"
       inkscape:connector-curvature="0" /></g><g
     id="g24"
     style="fill:#415f9d;fill-opacity:1"
     transform="translate(-5,-9)"><polygon
       points="33.962,25.722 47.788,39.561 44.939,42.412 31.113,28.573 "
       id="polygon22"
       style="fill:#415f9d;fill-opacity:1" /></g><g
     id="g28"
     style="fill:#415f9d;fill-opacity:1"
     transform="translate(-5,-9)"><path
       d="m 52.886,55.855 c -0.115,0 -0.228,-0.012 -0.343,-0.029 L 39.928,53.638 C 39.004,53.478 38.313,52.7 38.26,51.763 37.785,43.267 31.811,29.935 30.798,28.16 30.79,28.152 30.785,28.141 30.779,28.131 v 0 c 0,-0.003 -0.002,-0.003 -0.002,-0.005 -0.515,-0.938 -0.213,-2.122 0.7,-2.688 0.548,-0.339 1.198,-0.389 1.755,-0.181 0.145,0.05 0.278,0.118 0.404,0.199 2.141,1.161 15.264,6.958 23.494,7.412 0.937,0.052 1.716,0.743 1.876,1.67 l 2.188,12.634 c 0.109,0.646 -0.098,1.308 -0.563,1.77 l -6.322,6.322 c -0.379,0.381 -0.893,0.591 -1.423,0.591 z M 42.143,49.929 52.202,51.672 57.046,46.829 55.3,36.757 C 49.079,36.048 41.541,33.291 36.627,31.23 c 2.086,5.01 4.807,12.605 5.516,18.699 z"
       id="path26"
       style="fill:#415f9d;fill-opacity:1"
       inkscape:connector-curvature="0" /></g><g
     id="g32"
     style="fill:#415f9d;fill-opacity:1"
     transform="translate(-5,-9)"><path
       d="m 54.129,61.426 v 0 c -0.535,0 -1.047,-0.213 -1.424,-0.59 l -3.406,-3.411 c -0.787,-0.788 -0.787,-2.063 0,-2.851 L 59.946,43.916 c 0.378,-0.378 0.89,-0.59 1.425,-0.59 v 0 c 0.535,0 1.047,0.212 1.424,0.59 l 3.406,3.411 c 0.787,0.788 0.787,2.064 0,2.852 L 55.555,60.836 c -0.379,0.377 -0.891,0.59 -1.426,0.59 z M 53.573,56 l 0.556,0.559 7.798,-7.806 -0.556,-0.559 z"
       id="path30"
       style="fill:#415f9d;fill-opacity:1"
       inkscape:connector-curvature="0" /></g></svg>