<?xml version="1.0" encoding="UTF-8" standalone="no"?>
<!-- Generator: Adobe Illustrator 19.1.0, SVG Export Plug-In . SVG Version: 6.00 Build 0)  -->

<svg
   xmlns:dc="http://purl.org/dc/elements/1.1/"
   xmlns:cc="http://creativecommons.org/ns#"
   xmlns:rdf="http://www.w3.org/1999/02/22-rdf-syntax-ns#"
   xmlns:svg="http://www.w3.org/2000/svg"
   xmlns="http://www.w3.org/2000/svg"
   xmlns:sodipodi="http://sodipodi.sourceforge.net/DTD/sodipodi-0.dtd"
   xmlns:inkscape="http://www.inkscape.org/namespaces/inkscape"
   version="1.1"
   id="Capa_1"
   x="0px"
   y="0px"
   viewBox="0 0 487.7 404.19999"
   xml:space="preserve"
   width="512"
   height="424.33954"
   inkscape:version="0.92.1 r15371"
   sodipodi:docname="photo-camera.svg"><metadata
     id="metadata47"><rdf:RDF><cc:Work
         rdf:about=""><dc:format>image/svg+xml</dc:format><dc:type
           rdf:resource="http://purl.org/dc/dcmitype/StillImage" /><dc:title></dc:title></cc:Work></rdf:RDF></metadata><defs
     id="defs45" /><sodipodi:namedview
     pagecolor="#ffffff"
     bordercolor="#666666"
     borderopacity="1"
     objecttolerance="10"
     gridtolerance="10"
     guidetolerance="10"
     inkscape:pageopacity="0"
     inkscape:pageshadow="2"
     inkscape:window-width="1600"
     inkscape:window-height="838"
     id="namedview43"
     showgrid="false"
     inkscape:zoom="0.4609375"
     inkscape:cx="87.864407"
     inkscape:cy="212.16978"
     inkscape:window-x="1272"
     inkscape:window-y="-8"
     inkscape:window-maximized="1"
     inkscape:current-layer="Capa_1"
     fit-margin-top="0"
     fit-margin-left="0"
     fit-margin-right="0"
     fit-margin-bottom="0" /><g
     id="g3"
     style="fill:#eff0f4;fill-opacity:1"
     transform="translate(0,-41.75)"><g
       id="g5"
       style="fill:#eff0f4;fill-opacity:1"><path
         d="m 480.5,151.65 c -2,-1.1 -48.8,-25.4 -126.8,-40.1 l -3,-12.8 c -7.8,-33.5 -37.3,-57 -71.8,-57 h -70.1 c -34.4,0 -63.9,23.4 -71.8,57 l -3,12.8 c -78,14.6 -124.8,39 -126.8,40.1 -4.4,2.3 -7.2,6.9 -7.2,11.9 v 159 c 0,63.7 51.8,115.6 115.6,115.6 7.5,0 13.5,-6 13.5,-13.5 0,-7.5 -6,-13.5 -13.5,-13.5 -48.8,0 -88.6,-39.7 -88.6,-88.6 v -150.5 c 16.2,-7.4 59,-24.9 120.5,-35.5 5.3,-0.9 9.6,-5 10.8,-10.2 l 5,-21.5 c 5,-21.2 23.6,-36.1 45.5,-36.1 h 70.1 c 21.8,0 40.5,14.8 45.5,36.1 l 5,21.5 c 1.2,5.3 5.5,9.3 10.8,10.2 61.3,10.6 104.2,28.1 120.5,35.5 v 150.5 c 0,48.8 -39.7,88.6 -88.6,88.6 -7.5,0 -13.5,6 -13.5,13.5 0,7.5 6,13.5 13.5,13.5 63.7,0 115.6,-51.8 115.6,-115.6 v -159 c 0,-5 -2.7,-9.6 -7.2,-11.9 z"
         id="path7"
         style="fill:#eff0f4;fill-opacity:1"
         inkscape:connector-curvature="0" /><path
         d="m 44.2,124.05 c 1.4,0 2.8,-0.2 4.2,-0.7 14.2,-4.7 29.1,-8.9 44.3,-12.5 7.3,-1.7 11.7,-9 10,-16.2 -1.7,-7.3 -9,-11.7 -16.2,-10 -15.9,3.8 -31.6,8.2 -46.6,13.1 -7.1,2.3 -10.9,10 -8.6,17 2,5.7 7.3,9.3 12.9,9.3 z"
         id="path9"
         style="fill:#eff0f4;fill-opacity:1"
         inkscape:connector-curvature="0" /><path
         d="m 243.9,135.05 c -85.7,0 -155.4,69.7 -155.4,155.4 0,85.7 69.7,155.5 155.4,155.5 85.7,0 155.4,-69.7 155.4,-155.4 0,-85.7 -69.7,-155.5 -155.4,-155.5 z m 0,283.9 c -70.8,0 -128.4,-57.6 -128.4,-128.4 0,-70.8 57.6,-128.5 128.4,-128.5 70.8,0 128.4,57.6 128.4,128.4 0,70.8 -57.6,128.5 -128.4,128.5 z"
         id="path11"
         style="fill:#eff0f4;fill-opacity:1"
         inkscape:connector-curvature="0" /></g></g><g
     id="g13"
     transform="translate(0,-41.75)" /><g
     id="g15"
     transform="translate(0,-41.75)" /><g
     id="g17"
     transform="translate(0,-41.75)" /><g
     id="g19"
     transform="translate(0,-41.75)" /><g
     id="g21"
     transform="translate(0,-41.75)" /><g
     id="g23"
     transform="translate(0,-41.75)" /><g
     id="g25"
     transform="translate(0,-41.75)" /><g
     id="g27"
     transform="translate(0,-41.75)" /><g
     id="g29"
     transform="translate(0,-41.75)" /><g
     id="g31"
     transform="translate(0,-41.75)" /><g
     id="g33"
     transform="translate(0,-41.75)" /><g
     id="g35"
     transform="translate(0,-41.75)" /><g
     id="g37"
     transform="translate(0,-41.75)" /><g
     id="g39"
     transform="translate(0,-41.75)" /><g
     id="g41"
     transform="translate(0,-41.75)" /></svg>