<?xml version="1.0" encoding="UTF-8" standalone="no"?>
<!-- Generator: Adobe Illustrator 19.0.0, SVG Export Plug-In . SVG Version: 6.00 Build 0)  -->

<svg
   xmlns:dc="http://purl.org/dc/elements/1.1/"
   xmlns:cc="http://creativecommons.org/ns#"
   xmlns:rdf="http://www.w3.org/1999/02/22-rdf-syntax-ns#"
   xmlns:svg="http://www.w3.org/2000/svg"
   xmlns="http://www.w3.org/2000/svg"
   xmlns:sodipodi="http://sodipodi.sourceforge.net/DTD/sodipodi-0.dtd"
   xmlns:inkscape="http://www.inkscape.org/namespaces/inkscape"
   version="1.1"
   id="Layer_1"
   x="0px"
   y="0px"
   viewBox="0 0 511.99799 456.12399"
   xml:space="preserve"
   width="511.99899"
   height="456.12488"
   inkscape:version="0.92.1 r15371"
   sodipodi:docname="monitor.svg"><metadata
     id="metadata61"><rdf:RDF><cc:Work
         rdf:about=""><dc:format>image/svg+xml</dc:format><dc:type
           rdf:resource="http://purl.org/dc/dcmitype/StillImage" /><dc:title></dc:title></cc:Work></rdf:RDF></metadata><defs
     id="defs59" /><sodipodi:namedview
     pagecolor="#ffffff"
     bordercolor="#666666"
     borderopacity="1"
     objecttolerance="10"
     gridtolerance="10"
     guidetolerance="10"
     inkscape:pageopacity="0"
     inkscape:pageshadow="2"
     inkscape:window-width="1600"
     inkscape:window-height="838"
     id="namedview57"
     showgrid="false"
     inkscape:zoom="0.4609375"
     inkscape:cx="-432.81356"
     inkscape:cy="228.06195"
     inkscape:window-x="1272"
     inkscape:window-y="-8"
     inkscape:window-maximized="1"
     inkscape:current-layer="Layer_1"
     fit-margin-top="0"
     fit-margin-left="0"
     fit-margin-right="0"
     fit-margin-bottom="0" /><g
     id="g3"
     style="fill:#eff0f4;fill-opacity:1"
     transform="translate(0,-27.937)"><g
       id="g5"
       style="fill:#eff0f4;fill-opacity:1"><path
         d="M 481.091,27.937 H 30.909 C 13.866,27.937 0,41.803 0,58.846 v 310.819 c 0,17.043 13.866,30.909 30.909,30.909 h 154.26 v 22.49 c 0,20.617 -16.774,37.391 -37.391,37.391 h -33.997 c -6.518,0 -11.803,5.284 -11.803,11.803 0,6.519 5.285,11.803 11.803,11.803 h 284.436 c 6.518,0 11.803,-5.284 11.803,-11.803 0,-6.519 -5.285,-11.803 -11.803,-11.803 h -33.998 c -20.617,0 -37.391,-16.774 -37.391,-37.391 v -22.489 h 154.26 c 17.043,0 30.91,-13.866 30.91,-30.909 V 58.846 C 512,41.803 498.134,27.937 481.091,27.937 Z M 195.92,460.457 c 8.046,-10.336 12.857,-23.308 12.857,-37.391 v -22.49 h 94.447 v 22.49 c 0,14.083 4.811,27.056 12.857,37.391 z m 292.474,-90.791 c 0,4.027 -3.276,7.304 -7.304,7.304 H 30.909 c -4.027,0 -7.304,-3.276 -7.304,-7.304 v -62.033 h 464.789 z m 0,-85.64 H 23.606 V 58.846 c 0,-4.027 3.276,-7.304 7.304,-7.304 h 450.18 c 4.027,0 7.305,3.276 7.305,7.304 v 225.18 z"
         id="path7"
         style="fill:#eff0f4;fill-opacity:1"
         inkscape:connector-curvature="0" /></g></g><g
     id="g9"
     style="fill:#eff0f4;fill-opacity:1"
     transform="translate(0,-27.937)"><g
       id="g11"
       style="fill:#eff0f4;fill-opacity:1"><circle
         cx="256.00299"
         cy="342.30499"
         r="12.738"
         id="circle13"
         style="fill:#eff0f4;fill-opacity:1" /></g></g><g
     id="g15"
     style="fill:#eff0f4;fill-opacity:1"
     transform="translate(0,-27.937)"><g
       id="g17"
       style="fill:#eff0f4;fill-opacity:1"><path
         d="m 276.238,109.254 c -4.61,-4.609 -12.081,-4.609 -16.693,0 l -83.414,83.414 c -4.609,4.609 -4.609,12.083 0,16.693 2.306,2.305 5.325,3.457 8.347,3.457 3.022,0 6.041,-1.152 8.346,-3.457 l 83.414,-83.414 c 4.609,-4.609 4.609,-12.083 0,-16.693 z"
         id="path19"
         style="fill:#eff0f4;fill-opacity:1"
         inkscape:connector-curvature="0" /></g></g><g
     id="g21"
     style="fill:#eff0f4;fill-opacity:1"
     transform="translate(0,-27.937)"><g
       id="g23"
       style="fill:#eff0f4;fill-opacity:1"><path
         d="m 325.678,157.593 c -4.608,-4.609 -12.079,-4.609 -16.692,-10e-4 l -33.23,33.228 c -4.609,4.61 -4.609,12.084 0,16.693 2.305,2.305 5.325,3.457 8.346,3.457 3.02,0 6.041,-1.152 8.346,-3.457 l 33.23,-33.228 c 4.609,-4.609 4.609,-12.083 0,-16.692 z"
         id="path25"
         style="fill:#eff0f4;fill-opacity:1"
         inkscape:connector-curvature="0" /></g></g><g
     id="g27"
     style="fill:#eff0f4;fill-opacity:1"
     transform="translate(0,-27.937)" /><g
     id="g29"
     style="fill:#eff0f4;fill-opacity:1"
     transform="translate(0,-27.937)" /><g
     id="g31"
     style="fill:#eff0f4;fill-opacity:1"
     transform="translate(0,-27.937)" /><g
     id="g33"
     style="fill:#eff0f4;fill-opacity:1"
     transform="translate(0,-27.937)" /><g
     id="g35"
     style="fill:#eff0f4;fill-opacity:1"
     transform="translate(0,-27.937)" /><g
     id="g37"
     style="fill:#eff0f4;fill-opacity:1"
     transform="translate(0,-27.937)" /><g
     id="g39"
     style="fill:#eff0f4;fill-opacity:1"
     transform="translate(0,-27.937)" /><g
     id="g41"
     style="fill:#eff0f4;fill-opacity:1"
     transform="translate(0,-27.937)" /><g
     id="g43"
     style="fill:#eff0f4;fill-opacity:1"
     transform="translate(0,-27.937)" /><g
     id="g45"
     style="fill:#eff0f4;fill-opacity:1"
     transform="translate(0,-27.937)" /><g
     id="g47"
     style="fill:#eff0f4;fill-opacity:1"
     transform="translate(0,-27.937)" /><g
     id="g49"
     style="fill:#eff0f4;fill-opacity:1"
     transform="translate(0,-27.937)" /><g
     id="g51"
     style="fill:#eff0f4;fill-opacity:1"
     transform="translate(0,-27.937)" /><g
     id="g53"
     style="fill:#eff0f4;fill-opacity:1"
     transform="translate(0,-27.937)" /><g
     id="g55"
     style="fill:#eff0f4;fill-opacity:1"
     transform="translate(0,-27.937)" /></svg>