<?xml version="1.0" encoding="UTF-8" standalone="no"?>
<!-- Generator: Adobe Illustrator 19.0.0, SVG Export Plug-In . SVG Version: 6.00 Build 0)  -->

<svg
   xmlns:dc="http://purl.org/dc/elements/1.1/"
   xmlns:cc="http://creativecommons.org/ns#"
   xmlns:rdf="http://www.w3.org/1999/02/22-rdf-syntax-ns#"
   xmlns:svg="http://www.w3.org/2000/svg"
   xmlns="http://www.w3.org/2000/svg"
   xmlns:sodipodi="http://sodipodi.sourceforge.net/DTD/sodipodi-0.dtd"
   xmlns:inkscape="http://www.inkscape.org/namespaces/inkscape"
   version="1.1"
   id="Layer_1"
   x="0px"
   y="0px"
   viewBox="0 0 490 435"
   xml:space="preserve"
   sodipodi:docname="user.svg"
   width="490"
   height="435"
   inkscape:version="0.92.1 r15371"><metadata
     id="metadata47"><rdf:RDF><cc:Work
         rdf:about=""><dc:format>image/svg+xml</dc:format><dc:type
           rdf:resource="http://purl.org/dc/dcmitype/StillImage" /><dc:title></dc:title></cc:Work></rdf:RDF></metadata><defs
     id="defs45" /><sodipodi:namedview
     pagecolor="#ffffff"
     bordercolor="#666666"
     borderopacity="1"
     objecttolerance="10"
     gridtolerance="10"
     guidetolerance="10"
     inkscape:pageopacity="0"
     inkscape:pageshadow="2"
     inkscape:window-width="1280"
     inkscape:window-height="746"
     id="namedview43"
     showgrid="false"
     fit-margin-top="0"
     fit-margin-left="0"
     fit-margin-right="0"
     fit-margin-bottom="0"
     inkscape:zoom="0.48163265"
     inkscape:cx="245"
     inkscape:cy="217.5"
     inkscape:window-x="-8"
     inkscape:window-y="-8"
     inkscape:window-maximized="1"
     inkscape:current-layer="Layer_1" /><g
     id="g10"
     transform="translate(0,-27.5)"
     style="fill:#f9f9f9"><g
       id="g8"
       style="fill:#f9f9f9"><path
         style="fill:#f9f9f9"
         d="m 170.5,301.2 c -9.5,7.8 -15,19.5 -15,31.9 v 44.3 c 0,5.5 4.4,9.9 9.9,9.9 5.5,0 9.9,-4.4 9.9,-9.9 v -44.3 c 0,-6.5 2.8,-12.5 7.8,-16.6 39.3,-32.3 82,-53.8 90.1,-57.8 4.4,-2.1 7.2,-6.6 7.2,-11.5 v -62.4 c 0,-3.3 -1.7,-6.4 -4.4,-8.2 -5.4,-3.6 -8.6,-9.6 -8.6,-16 V 95.9 c 0,-26.7 21.7,-48.4 48.4,-48.4 h 13.9 c 26.7,0 48.4,21.7 48.4,48.4 v 64.7 c 0,6.4 -3.2,12.4 -8.6,16 -2.8,1.8 -4.4,4.9 -4.4,8.2 v 62.3 c 0,4.9 2.8,9.4 7.2,11.5 8.2,4 50.8,25.5 90.1,57.8 4.9,4.1 7.8,10.1 7.8,16.6 v 44.3 c 0,5.5 4.4,9.9 9.9,9.9 5.5,0 9.9,-4.4 9.9,-9.9 V 333 c 0,-12.4 -5.5,-24 -15,-31.9 -36.6,-30.1 -76,-51.2 -90.1,-58.4 v -53.2 c 8.2,-7.4 13,-17.9 13,-29.1 V 95.7 c 0,-37.6 -30.6,-68.2 -68.2,-68.2 h -13.9 c -37.6,0 -68.2,30.6 -68.2,68.2 v 64.7 c 0,11.2 4.8,21.7 13,29.1 v 53.2 c -14.1,7.2 -53.4,28.4 -90.1,58.5 z"
         id="path2"
         inkscape:connector-curvature="0" /><path
         style="fill:#f9f9f9"
         d="M 143.7,90.7 H 132.4 C 100.8,90.7 75,116.4 75,148.1 v 52.7 c 0,9.4 3.9,18.2 10.6,24.5 v 41.4 C 73.3,273 42,290 12.9,313.9 4.7,320.6 0,330.6 0,341.3 v 36.1 c 0,5.5 4.4,9.9 9.9,9.9 5.5,0 9.9,-4.4 9.9,-9.9 v -36.1 c 0,-4.7 2.1,-9.1 5.7,-12.1 31.9,-26.2 66.4,-43.6 73.1,-46.9 4.2,-2 6.9,-6.4 6.9,-11 v -50.8 c 0,-3.3 -1.7,-6.4 -4.4,-8.2 -3.9,-2.6 -6.2,-6.9 -6.2,-11.5 v -52.7 c 0,-20.7 16.9,-37.6 37.6,-37.6 h 11.3 c 20.7,0 37.6,16.9 37.6,37.6 v 52.7 c 0,4.6 -2.3,8.9 -6.2,11.5 -2.8,1.8 -4.4,4.9 -4.4,8.2 v 41.7 c 0,5.5 4.4,9.9 9.9,9.9 5.5,0 9.9,-4.4 9.9,-9.9 v -36.9 c 6.7,-6.3 10.6,-15.1 10.6,-24.5 V 148.1 C 201.1,116.4 175.4,90.7 143.7,90.7 Z"
         id="path4"
         inkscape:connector-curvature="0" /><path
         style="fill:#f9f9f9"
         d="m 344.2,255.1 c -5.5,0 -9.9,4.4 -9.9,9.9 0,6.4 -5.2,11.5 -11.5,11.5 -2.4,0 -4.6,-0.7 -6.4,-2 -0.4,-0.4 -0.9,-0.8 -1.4,-1.1 -2.3,-2.1 -3.7,-5.1 -3.7,-8.5 0,-5.5 -4.4,-9.9 -9.9,-9.9 -5.5,0 -9.9,4.4 -9.9,9.9 0,8 3,15.2 7.9,20.8 l -6.7,147.6 c -0.1,3 1.1,5.8 3.3,7.8 l 20.9,18.8 c 1.9,1.7 4.3,2.6 6.6,2.6 2.4,0 4.7,-0.8 6.6,-2.5 l 20.6,-18.5 c 2.2,-2 3.4,-4.8 3.3,-7.8 l -6.4,-149.4 c 4.2,-5.3 6.7,-12 6.7,-19.2 -0.2,-5.5 -4.7,-10 -10.1,-10 z m -20.8,184.3 -10.8,-9.7 6,-133.5 c 1.3,0.2 2.7,0.3 4,0.3 1.8,0 3.6,-0.2 5.4,-0.5 l 5.8,134 z"
         id="path6"
         inkscape:connector-curvature="0" /></g></g><g
     id="g12"
     transform="translate(0,-27.5)"
     style="fill:#f9f9f9" /><g
     id="g14"
     transform="translate(0,-27.5)"
     style="fill:#f9f9f9" /><g
     id="g16"
     transform="translate(0,-27.5)"
     style="fill:#f9f9f9" /><g
     id="g18"
     transform="translate(0,-27.5)"
     style="fill:#f9f9f9" /><g
     id="g20"
     transform="translate(0,-27.5)"
     style="fill:#f9f9f9" /><g
     id="g22"
     transform="translate(0,-27.5)"
     style="fill:#f9f9f9" /><g
     id="g24"
     transform="translate(0,-27.5)"
     style="fill:#f9f9f9" /><g
     id="g26"
     transform="translate(0,-27.5)"
     style="fill:#f9f9f9" /><g
     id="g28"
     transform="translate(0,-27.5)"
     style="fill:#f9f9f9" /><g
     id="g30"
     transform="translate(0,-27.5)"
     style="fill:#f9f9f9" /><g
     id="g32"
     transform="translate(0,-27.5)"
     style="fill:#f9f9f9" /><g
     id="g34"
     transform="translate(0,-27.5)"
     style="fill:#f9f9f9" /><g
     id="g36"
     transform="translate(0,-27.5)"
     style="fill:#f9f9f9" /><g
     id="g38"
     transform="translate(0,-27.5)"
     style="fill:#f9f9f9" /><g
     id="g40"
     transform="translate(0,-27.5)"
     style="fill:#f9f9f9" /></svg>