<?xml version="1.0" encoding="UTF-8" standalone="no"?>
<!-- Generator: Adobe Illustrator 19.0.0, SVG Export Plug-In . SVG Version: 6.00 Build 0)  -->

<svg
   xmlns:dc="http://purl.org/dc/elements/1.1/"
   xmlns:cc="http://creativecommons.org/ns#"
   xmlns:rdf="http://www.w3.org/1999/02/22-rdf-syntax-ns#"
   xmlns:svg="http://www.w3.org/2000/svg"
   xmlns="http://www.w3.org/2000/svg"
   xmlns:sodipodi="http://sodipodi.sourceforge.net/DTD/sodipodi-0.dtd"
   xmlns:inkscape="http://www.inkscape.org/namespaces/inkscape"
   version="1.1"
   id="Layer_1"
   x="0px"
   y="0px"
   viewBox="0 0 490.46479 490.4"
   xml:space="preserve"
   sodipodi:docname="mouse.svg"
   width="490.46478"
   height="490.39999"
   inkscape:version="0.92.1 r15371"><metadata
     id="metadata45"><rdf:RDF><cc:Work
         rdf:about=""><dc:format>image/svg+xml</dc:format><dc:type
           rdf:resource="http://purl.org/dc/dcmitype/StillImage" /><dc:title></dc:title></cc:Work></rdf:RDF></metadata><defs
     id="defs43" /><sodipodi:namedview
     pagecolor="#ffffff"
     bordercolor="#666666"
     borderopacity="1"
     objecttolerance="10"
     gridtolerance="10"
     guidetolerance="10"
     inkscape:pageopacity="0"
     inkscape:pageshadow="2"
     inkscape:window-width="1280"
     inkscape:window-height="746"
     id="namedview41"
     showgrid="false"
     fit-margin-top="0"
     fit-margin-left="0"
     fit-margin-right="0"
     fit-margin-bottom="0"
     inkscape:zoom="0.48117603"
     inkscape:cx="245.23229"
     inkscape:cy="245.1995"
     inkscape:window-x="-8"
     inkscape:window-y="-8"
     inkscape:window-maximized="1"
     inkscape:current-layer="Layer_1" /><g
     id="g8"
     transform="translate(-2.1119477e-4,-0.032)"
     style="fill:#f9f9f9"><g
       id="g6"
       style="fill:#f9f9f9"><path
         style="fill:#f9f9f9"
         d="m 490.465,245.232 c 0,-135.2 -110,-245.2 -245.2,-245.2 -5.5,0 -9.9,4.4 -9.9,9.9 v 90.7 h -4.6 c -45.9,0 -83.3,37.3 -83.3,83.3 v 122.7 c 0,45.9 37.3,83.3 83.3,83.3 h 28.9 c 45.9,0 83.3,-37.3 83.3,-83.3 v -122.8 c 0,-45.9 -37.3,-83.3 -83.3,-83.3 h -4.6 v -80.6 c 119.8,5.2 215.6,104.3 215.6,225.3 0,79.6 -40.7,151.7 -108.8,193 -70.4,42.6 -156.3,43.3 -235.6,1.9 -32.6,-17.1 -58.9,-43.4 -76,-76.1 -53.3,-102.3 -35.7,-215 44.9,-286.9 4.1,-3.6 4.4,-9.9 0.8,-14 -3.6,-4.1 -9.9,-4.4 -14,-0.8 -40.1,35.8 -67.7,84.4 -77.7,136.9 -10.8,57.1 -1,117.3 28.4,173.8 18.9,36.4 48.1,65.6 84.4,84.5 42,22 85.8,32.9 128.6,32.9 44.3,0 87.6,-11.8 126.5,-35.4 74.1,-44.8 118.3,-123.3 118.3,-209.8 z m -230.7,-124.9 c 35,0 63.5,28.5 63.5,63.5 v 122.7 c 0,35 -28.5,63.5 -63.5,63.5 h -28.9 c -35,0 -63.5,-28.5 -63.5,-63.5 v -122.7 c 0,-35 28.5,-63.5 63.5,-63.5 z"
         id="path2"
         inkscape:connector-curvature="0" /><path
         style="fill:#f9f9f9"
         d="m 245.265,220.232 c 5.5,0 9.9,-4.4 9.9,-9.9 v -49 c 0,-5.5 -4.4,-9.9 -9.9,-9.9 -5.5,0 -9.9,4.4 -9.9,9.9 v 49 c 0,5.4 4.4,9.9 9.9,9.9 z"
         id="path4"
         inkscape:connector-curvature="0" /></g></g><g
     id="g10"
     transform="translate(-2.1119477e-4,-0.032)" /><g
     id="g12"
     transform="translate(-2.1119477e-4,-0.032)" /><g
     id="g14"
     transform="translate(-2.1119477e-4,-0.032)" /><g
     id="g16"
     transform="translate(-2.1119477e-4,-0.032)" /><g
     id="g18"
     transform="translate(-2.1119477e-4,-0.032)" /><g
     id="g20"
     transform="translate(-2.1119477e-4,-0.032)" /><g
     id="g22"
     transform="translate(-2.1119477e-4,-0.032)" /><g
     id="g24"
     transform="translate(-2.1119477e-4,-0.032)" /><g
     id="g26"
     transform="translate(-2.1119477e-4,-0.032)" /><g
     id="g28"
     transform="translate(-2.1119477e-4,-0.032)" /><g
     id="g30"
     transform="translate(-2.1119477e-4,-0.032)" /><g
     id="g32"
     transform="translate(-2.1119477e-4,-0.032)" /><g
     id="g34"
     transform="translate(-2.1119477e-4,-0.032)" /><g
     id="g36"
     transform="translate(-2.1119477e-4,-0.032)" /><g
     id="g38"
     transform="translate(-2.1119477e-4,-0.032)" /></svg>