<?xml version="1.0" encoding="UTF-8" standalone="no"?>
<!-- Generator: Adobe Illustrator 19.0.0, SVG Export Plug-In . SVG Version: 6.00 Build 0)  -->

<svg
   xmlns:dc="http://purl.org/dc/elements/1.1/"
   xmlns:cc="http://creativecommons.org/ns#"
   xmlns:rdf="http://www.w3.org/1999/02/22-rdf-syntax-ns#"
   xmlns:svg="http://www.w3.org/2000/svg"
   xmlns="http://www.w3.org/2000/svg"
   xmlns:sodipodi="http://sodipodi.sourceforge.net/DTD/sodipodi-0.dtd"
   xmlns:inkscape="http://www.inkscape.org/namespaces/inkscape"
   version="1.1"
   id="Layer_1"
   x="0px"
   y="0px"
   viewBox="0 0 491.5 479.69461"
   xml:space="preserve"
   sodipodi:docname="chat.svg"
   width="491.5"
   height="479.69461"
   inkscape:version="0.92.1 r15371"><metadata
     id="metadata45"><rdf:RDF><cc:Work
         rdf:about=""><dc:format>image/svg+xml</dc:format><dc:type
           rdf:resource="http://purl.org/dc/dcmitype/StillImage" /><dc:title></dc:title></cc:Work></rdf:RDF></metadata><defs
     id="defs43" /><sodipodi:namedview
     pagecolor="#ffffff"
     bordercolor="#666666"
     borderopacity="1"
     objecttolerance="10"
     gridtolerance="10"
     guidetolerance="10"
     inkscape:pageopacity="0"
     inkscape:pageshadow="2"
     inkscape:window-width="1600"
     inkscape:window-height="838"
     id="namedview41"
     showgrid="false"
     fit-margin-top="0"
     fit-margin-left="0"
     fit-margin-right="0"
     fit-margin-bottom="0"
     inkscape:zoom="0.48016277"
     inkscape:cx="245.75"
     inkscape:cy="239.847"
     inkscape:window-x="1272"
     inkscape:window-y="-8"
     inkscape:window-maximized="1"
     inkscape:current-layer="Layer_1" /><g
     id="g6"
     transform="translate(0,-5.9023963)"
     style="fill:#f9f9f9"><path
       inkscape:connector-curvature="0"
       id="path2"
       d="m 65,387.897 h 33.3 v 87.8 c 0,4 2.4,7.5 6,9.1 1.3,0.5 2.6,0.8 3.9,0.8 2.5,0 5,-1 6.9,-2.8 l 99.1,-94.9 H 400 c 26.4,0 50.7,-16.6 60.5,-41.3 2,-5.1 -0.5,-10.8 -5.6,-12.8 -5.1,-2 -10.8,0.5 -12.8,5.6 -6.8,17.2 -23.7,28.7 -42.1,28.7 H 210.2 c -2.6,0 -5,1 -6.8,2.8 l -85.2,81.6 v -74.4 c 0,-5.5 -4.4,-9.9 -9.9,-9.9 H 65 c -24.9,0 -45.2,-20.3 -45.2,-45.2 v -204.5 c 0,-24.9 20.3,-45.2 45.2,-45.2 h 205.4 c 5.5,0 9.9,-4.4 9.9,-9.9 0,-5.5 -4.4,-9.9 -9.9,-9.9 H 65 c -35.9,0 -65,29.2 -65,65 v 204.4 c 0,35.9 29.1,65 65,65 z"
       style="fill:#f9f9f9" /><path
       inkscape:connector-curvature="0"
       id="path4"
       d="m 255.8,129.197 c -3.6,-4.7 -9.2,-7.8 -15.6,-7.8 H 193 c -10.8,0 -19.5,8.8 -19.5,19.5 v 144.1 c 0,10.8 8.8,19.5 19.5,19.5 h 47.2 c 5.1,0 9.7,-2 13.2,-5.2 8.3,8.2 19.7,13.4 32.3,13.4 h 133.8 c 30.8,0 50.4,-16.2 53.9,-44.3 l 18,-114.3 c 0.1,-0.5 0.1,-1 0.1,-1.5 0,-25.2 -20.5,-45.7 -45.7,-45.7 h -65.5 v -46.7 c 0,-21.3 -6.3,-36.7 -18.7,-45.8 -19.6,-14.4 -46.4,-6.2 -47.6,-5.9 -4.1,1.3 -6.9,5.1 -6.9,9.4 v 54.7 c 0,41.5 -48.5,55.7 -50.5,56.3 -0.4,0.1 -0.6,0.2 -0.8,0.3 z m -15.9,155.6 h -46.7 v -143.6 h 46.7 z m 19.8,-136.5 c 0.7,0 1.4,-0.1 2.1,-0.3 2.7,-0.7 65,-18.8 65,-75.4 v -46.6 c 6.4,-0.8 16,-0.8 23,4.4 7,5.2 10.6,15.2 10.6,29.8 v 56.5 c 0,5.5 4.4,9.9 9.9,9.9 h 75.4 c 14.1,0 25.5,11.2 25.9,25.2 l -17.9,113.7 c 0,0.1 0,0.2 0,0.3 -2.2,18 -13.7,27.1 -34.3,27.1 H 285.7 c -14.3,0 -25.9,-11.6 -25.9,-25.9 v -118.7 z"
       style="fill:#f9f9f9" /></g><g
     id="g10"
     transform="translate(0,-5.9023963)" /><g
     id="g12"
     transform="translate(0,-5.9023963)" /><g
     id="g14"
     transform="translate(0,-5.9023963)" /><g
     id="g16"
     transform="translate(0,-5.9023963)" /><g
     id="g18"
     transform="translate(0,-5.9023963)" /><g
     id="g20"
     transform="translate(0,-5.9023963)" /><g
     id="g22"
     transform="translate(0,-5.9023963)" /><g
     id="g24"
     transform="translate(0,-5.9023963)" /><g
     id="g26"
     transform="translate(0,-5.9023963)" /><g
     id="g28"
     transform="translate(0,-5.9023963)" /><g
     id="g30"
     transform="translate(0,-5.9023963)" /><g
     id="g32"
     transform="translate(0,-5.9023963)" /><g
     id="g34"
     transform="translate(0,-5.9023963)" /><g
     id="g36"
     transform="translate(0,-5.9023963)" /><g
     id="g38"
     transform="translate(0,-5.9023963)" /></svg>