<?xml version="1.0" encoding="UTF-8" standalone="no"?>
<svg
   xmlns:dc="http://purl.org/dc/elements/1.1/"
   xmlns:cc="http://creativecommons.org/ns#"
   xmlns:rdf="http://www.w3.org/1999/02/22-rdf-syntax-ns#"
   xmlns:svg="http://www.w3.org/2000/svg"
   xmlns="http://www.w3.org/2000/svg"
   xmlns:sodipodi="http://sodipodi.sourceforge.net/DTD/sodipodi-0.dtd"
   xmlns:inkscape="http://www.inkscape.org/namespaces/inkscape"
   version="1.1"
   x="0px"
   y="0px"
   viewBox="0 0 67.343002 88.5"
   enable-background="new 0 0 100 100"
   xml:space="preserve"
   id="svg22"
   sodipodi:docname="noun_951827_cc.svg"
   width="67.343002"
   height="88.5"
   inkscape:version="0.92.1 r15371"><metadata
     id="metadata28"><rdf:RDF><cc:Work
         rdf:about=""><dc:format>image/svg+xml</dc:format><dc:type
           rdf:resource="http://purl.org/dc/dcmitype/StillImage" /><dc:title></dc:title></cc:Work></rdf:RDF></metadata><defs
     id="defs26" /><sodipodi:namedview
     pagecolor="#ffffff"
     bordercolor="#666666"
     borderopacity="1"
     objecttolerance="10"
     gridtolerance="10"
     guidetolerance="10"
     inkscape:pageopacity="0"
     inkscape:pageshadow="2"
     inkscape:window-width="1600"
     inkscape:window-height="838"
     id="namedview24"
     showgrid="false"
     fit-margin-top="0"
     fit-margin-left="0"
     fit-margin-right="0"
     fit-margin-bottom="0"
     inkscape:zoom="0.944"
     inkscape:cx="-32.041176"
     inkscape:cy="11.467648"
     inkscape:window-x="-8"
     inkscape:window-y="-8"
     inkscape:window-maximized="1"
     inkscape:current-layer="svg22" /><g
     id="g16"
     style="fill:#415f9d;fill-opacity:1"
     transform="translate(-18.483,-5.499)"><g
       id="g14"
       style="fill:#415f9d;fill-opacity:1"><g
         id="g8"
         style="fill:#415f9d;fill-opacity:1"><path
           d="m 73.133,62.268 c -7,0 -12.693,-5.693 -12.693,-12.693 0,-7 5.693,-12.693 12.693,-12.693 7.001,0 12.693,5.692 12.693,12.693 0,6.999 -5.692,12.693 -12.693,12.693 z m 0,-21.156 c -4.665,0 -8.463,3.795 -8.463,8.462 0,4.667 3.798,8.463 8.463,8.463 4.669,0 8.462,-3.798 8.462,-8.463 0,-4.664 -3.793,-8.462 -8.462,-8.462 z"
           id="path2"
           style="fill:#415f9d;fill-opacity:1"
           inkscape:connector-curvature="0" /><path
           d="m 31.176,93.999 c -7,0 -12.693,-5.691 -12.693,-12.693 0,-7.002 5.693,-12.693 12.693,-12.693 7,0 12.694,5.691 12.694,12.693 0,7.002 -5.694,12.693 -12.694,12.693 z m 0,-21.155 c -4.667,0 -8.462,3.795 -8.462,8.462 0,4.667 3.795,8.462 8.462,8.462 4.667,0 8.463,-3.795 8.463,-8.462 0,-4.667 -3.796,-8.462 -8.463,-8.462 z"
           id="path4"
           style="fill:#415f9d;fill-opacity:1"
           inkscape:connector-curvature="0" /><path
           d="m 31.176,30.886 c -7,0 -12.693,-5.693 -12.693,-12.693 0,-7 5.692,-12.694 12.693,-12.694 7.001,0 12.694,5.693 12.694,12.693 0,7 -5.694,12.694 -12.694,12.694 z m 0,-21.156 c -4.667,0 -8.462,3.795 -8.462,8.462 0,4.667 3.795,8.462 8.462,8.462 4.667,0 8.463,-3.795 8.463,-8.462 0,-4.667 -3.796,-8.462 -8.463,-8.462 z"
           id="path6"
           style="fill:#415f9d;fill-opacity:1"
           inkscape:connector-curvature="0" /></g><rect
         x="49.922001"
         y="49.141998"
         transform="matrix(-0.6028,-0.7979,0.7979,-0.6028,31.1143,146.5612)"
         width="4.23"
         height="32.787998"
         id="rect10"
         style="fill:#415f9d;fill-opacity:1" /><rect
         x="35.754002"
         y="31.854"
         transform="matrix(-0.8008,-0.599,0.599,-0.8008,73.7684,92.4754)"
         width="33.018002"
         height="4.2319999"
         id="rect12"
         style="fill:#415f9d;fill-opacity:1" /></g></g></svg>