<?xml version="1.0" encoding="UTF-8" standalone="no"?>
<!-- Generator: Adobe Illustrator 18.1.1, SVG Export Plug-In . SVG Version: 6.00 Build 0)  -->

<svg
   xmlns:dc="http://purl.org/dc/elements/1.1/"
   xmlns:cc="http://creativecommons.org/ns#"
   xmlns:rdf="http://www.w3.org/1999/02/22-rdf-syntax-ns#"
   xmlns:svg="http://www.w3.org/2000/svg"
   xmlns="http://www.w3.org/2000/svg"
   xmlns:sodipodi="http://sodipodi.sourceforge.net/DTD/sodipodi-0.dtd"
   xmlns:inkscape="http://www.inkscape.org/namespaces/inkscape"
   version="1.1"
   id="Capa_1"
   x="0px"
   y="0px"
   viewBox="0 0 428.948 318.47101"
   xml:space="preserve"
   sodipodi:docname="speed.svg"
   width="428.948"
   height="318.47101"
   inkscape:version="0.92.1 r15371"><metadata
     id="metadata47"><rdf:RDF><cc:Work
         rdf:about=""><dc:format>image/svg+xml</dc:format><dc:type
           rdf:resource="http://purl.org/dc/dcmitype/StillImage" /><dc:title></dc:title></cc:Work></rdf:RDF></metadata><defs
     id="defs45" /><sodipodi:namedview
     pagecolor="#ffffff"
     bordercolor="#666666"
     borderopacity="1"
     objecttolerance="10"
     gridtolerance="10"
     guidetolerance="10"
     inkscape:pageopacity="0"
     inkscape:pageshadow="2"
     inkscape:window-width="1600"
     inkscape:window-height="838"
     id="namedview43"
     showgrid="false"
     fit-margin-top="0"
     fit-margin-left="0"
     fit-margin-right="0"
     fit-margin-bottom="0"
     inkscape:zoom="0.55018324"
     inkscape:cx="-81.790932"
     inkscape:cy="159.236"
     inkscape:window-x="1272"
     inkscape:window-y="-8"
     inkscape:window-maximized="1"
     inkscape:current-layer="Capa_1" /><g
     id="g10"
     transform="translate(0,-55.239)"
     style="fill:#f1f1f1;fill-opacity:1"><g
       id="g8"
       style="fill:#f1f1f1;fill-opacity:1"><path
         style="fill:#f1f1f1;fill-opacity:1"
         d="m 221.988,280.48 c 9.664,0 17.516,-7.889 17.516,-17.563 0,-9.653 -7.852,-17.487 -17.516,-17.487 l -79.361,-58.371 61.844,76.985 c 0.574,9.164 8.209,16.436 17.517,16.436 z"
         id="path2"
         inkscape:connector-curvature="0" /><rect
         x="127.008"
         y="332.19699"
         style="fill:#f1f1f1;fill-opacity:1"
         width="174.933"
         height="41.513"
         id="rect4" /><path
         style="fill:#f1f1f1;fill-opacity:1"
         d="M 366.13,118.057 C 325.62,77.548 271.761,55.239 214.474,55.239 157.186,55.239 103.326,77.548 62.817,118.057 22.308,158.566 0,212.425 0,269.713 c 0,36.99 9.319,72.539 26.816,103.997 h 40.086 l 29.319,-16.929 -12.948,-22.428 -37.7,21.768 C 32.254,330.189 24.73,300.814 24.73,269.713 c 0,-5.504 0.25,-10.951 0.711,-16.338 l 44.952,7.926 4.497,-25.504 -45.481,-8.019 C 37.536,191.895 55.86,159.841 81.164,134.83 l 30.815,36.725 19.839,-16.646 -31.049,-37.002 C 129.24,96.528 163.897,82.969 201.526,80.422 v 49.117 h 25.896 V 80.422 c 37.629,2.549 72.286,16.107 100.758,37.486 l -31.05,37.001 19.838,16.646 30.816,-36.726 c 25.303,25.012 43.627,57.066 51.754,92.948 l -45.48,8.021 4.498,25.502 44.949,-7.927 c 0.461,5.388 0.711,10.834 0.711,16.338 0,31.103 -7.521,60.479 -20.842,86.409 l -37.701,-21.766 -12.947,22.427 29.318,16.927 h 40.088 c 17.498,-31.458 26.816,-67.007 26.816,-103.997 0.001,-57.287 -22.31,-111.147 -62.818,-151.654 z"
         id="path6"
         inkscape:connector-curvature="0" /></g></g><g
     id="g12"
     transform="translate(0,-55.239)" /><g
     id="g14"
     transform="translate(0,-55.239)" /><g
     id="g16"
     transform="translate(0,-55.239)" /><g
     id="g18"
     transform="translate(0,-55.239)" /><g
     id="g20"
     transform="translate(0,-55.239)" /><g
     id="g22"
     transform="translate(0,-55.239)" /><g
     id="g24"
     transform="translate(0,-55.239)" /><g
     id="g26"
     transform="translate(0,-55.239)" /><g
     id="g28"
     transform="translate(0,-55.239)" /><g
     id="g30"
     transform="translate(0,-55.239)" /><g
     id="g32"
     transform="translate(0,-55.239)" /><g
     id="g34"
     transform="translate(0,-55.239)" /><g
     id="g36"
     transform="translate(0,-55.239)" /><g
     id="g38"
     transform="translate(0,-55.239)" /><g
     id="g40"
     transform="translate(0,-55.239)" /></svg>